<?xml version="1.0" encoding="utf-8"?>
<!-- Generator: Adobe Illustrator 15.1.0, SVG Export Plug-In . SVG Version: 6.00 Build 0)  -->
<!DOCTYPE svg PUBLIC "-//W3C//DTD SVG 1.1 Tiny//EN" "http://www.w3.org/Graphics/SVG/1.1/DTD/svg11-tiny.dtd">
<svg version="1.1" baseProfile="tiny" id="圖層_1"
	 xmlns="http://www.w3.org/2000/svg" xmlns:xlink="http://www.w3.org/1999/xlink" x="0px" y="0px" width="40px" height="40px"
	 viewBox="0 0 40 40" xml:space="preserve">
<g>
	<path d="M20,37.688c-9.684,0-17.563-7.879-17.563-17.563c0-9.684,7.878-17.563,17.563-17.563c9.684,0,17.563,7.878,17.563,17.563
		C37.563,29.809,29.684,37.688,20,37.688z M20,4.563c-8.581,0-15.563,6.981-15.563,15.563S11.419,35.688,20,35.688
		s15.563-6.981,15.563-15.563S28.581,4.563,20,4.563z"/>
</g>
<polygon points="13.813,13.037 14.489,15.12 16.679,15.12 14.907,16.408 15.584,18.491 13.813,17.204 12.041,18.491 12.718,16.408 
	10.946,15.12 13.136,15.12 "/>
<polygon points="26.313,13.037 26.988,15.12 29.179,15.12 27.407,16.408 28.085,18.491 26.313,17.204 24.54,18.491 25.218,16.408 
	23.446,15.12 25.637,15.12 "/>
<polygon points="13.813,23.162 14.489,25.245 16.679,25.245 14.907,26.533 15.584,28.615 13.813,27.329 12.041,28.615 
	12.718,26.533 10.946,25.245 13.136,25.245 "/>
<polygon points="26.313,23.162 26.988,25.245 29.179,25.245 27.407,26.533 28.085,28.615 26.313,27.329 24.54,28.615 25.218,26.533 
	23.446,25.245 25.637,25.245 "/>
</svg>
