<?xml version="1.0" encoding="utf-8"?>
<!-- Generator: Adobe Illustrator 15.1.0, SVG Export Plug-In . SVG Version: 6.00 Build 0)  -->
<!DOCTYPE svg PUBLIC "-//W3C//DTD SVG 1.1//EN" "http://www.w3.org/Graphics/SVG/1.1/DTD/svg11.dtd">
<svg version="1.1" id="Layer_1" xmlns="http://www.w3.org/2000/svg" xmlns:xlink="http://www.w3.org/1999/xlink" x="0px" y="0px"
	 width="32px" height="32px" viewBox="0 0 32 32" enable-background="new 0 0 32 32" xml:space="preserve">
<g>
	<defs>
		<rect id="SVGID_1_" width="32" height="32"/>
	</defs>
	<clipPath id="SVGID_2_">
		<use xlink:href="#SVGID_1_"  overflow="visible"/>
	</clipPath>
	<g clip-path="url(#SVGID_2_)">
		<g>
			<defs>
				<rect id="SVGID_3_" width="32" height="32"/>
			</defs>
			<clipPath id="SVGID_4_">
				<use xlink:href="#SVGID_3_"  overflow="visible"/>
			</clipPath>
			<path clip-path="url(#SVGID_4_)" fill="#969696" d="M25.882,6.116C23.352,3.577,19.855,2,15.987,2C8.263,2,2.001,8.268,2.001,16
				c0,7.732,6.266,14.001,13.988,14.001c5.723,0,10.641-3.44,12.809-8.364l-3.815-1.638c-1.539,3.442-4.984,5.853-8.991,5.853
				c-5.427,0-9.843-4.42-9.843-9.852c0-5.432,4.416-9.851,9.843-9.851c2.719,0,5.18,1.022,6.963,2.814l-4.146,4.054h11.176V2
				L25.882,6.116z"/>
		</g>
	</g>
</g>
</svg>
